<svg width="2458" height="843" xmlns="http://www.w3.org/2000/svg" xmlns:xlink="http://www.w3.org/1999/xlink" overflow="hidden"><defs><clipPath id="clip0"><rect x="146" y="1879" width="2458" height="843"/></clipPath><clipPath id="clip1"><rect x="1229" y="1878" width="331" height="331"/></clipPath><clipPath id="clip2"><rect x="1229" y="1878" width="331" height="331"/></clipPath><clipPath id="clip3"><rect x="1229" y="1878" width="331" height="331"/></clipPath><clipPath id="clip4"><rect x="1567" y="2392" width="331" height="331"/></clipPath><clipPath id="clip5"><rect x="1567" y="2392" width="331" height="331"/></clipPath><clipPath id="clip6"><rect x="1567" y="2392" width="331" height="331"/></clipPath><clipPath id="clip7"><rect x="1732" y="1939" width="331" height="331"/></clipPath><clipPath id="clip8"><rect x="1732" y="1939" width="331" height="331"/></clipPath><clipPath id="clip9"><rect x="1732" y="1939" width="331" height="331"/></clipPath></defs><g clip-path="url(#clip0)" transform="translate(-146 -1879)"><path d="M2590 2271.42C2562.22 2293.73 2516.1 2328.36 2480.39 2321.33 2441.31 2322.76 2425.47 2254.87 2370.77 2268.3 2316.25 2271.64 2220.6 2365.78 2145 2369.69 2053.17 2354.19 1989.81 2197.61 1930.68 2220.72 1852.31 2243.62 1776.89 2453.27 1688.55 2432.86 1620.58 2434.83 1559.08 2147.56 1474.23 2141.17 1366.31 2184.1 1296.63 2356.44 1255 2482" stroke="#002060" stroke-width="27.5" stroke-linecap="round" stroke-linejoin="round" stroke-miterlimit="10" fill="none" fill-rule="evenodd"/><path d="M1381.11 2152.79 1440.11 2180.11 1278.96 2528.08 1219.96 2500.76Z" stroke="#FFFFFF" stroke-width="4.58333" stroke-miterlimit="8" fill="#FFFFFF" fill-rule="evenodd"/><path d="M160 2345C191.447 2324.98 229.498 2300.84 263.866 2303.28 301.672 2301.27 315.345 2356.94 367.732 2347.61 419.433 2345.23 511.408 2260.21 581.666 2262.87 660.052 2273.13 715.891 2398.57 784.749 2387.37 858.012 2372.23 926.299 2189.77 1014.18 2210.07 1077.32 2204.34 1144.76 2456.02 1217.27 2453.86 1309.51 2423.85 1370.85 2288.19 1425 2169" stroke="#002060" stroke-width="27.5" stroke-linecap="round" stroke-linejoin="round" stroke-miterlimit="10" fill="none" fill-rule="evenodd"/><g clip-path="url(#clip1)"><g clip-path="url(#clip2)"><g clip-path="url(#clip3)"><path d="M1485.51 2144.8 1472.9 2140.44 1468.72 2138.72C1474.8 2133.2 1480.97 2127.34 1487.14 2121.17 1501.39 2107.02 1514.73 2091.98 1527.07 2076.14 1530.02 2072.28 1529.65 2066.84 1526.21 2063.42L1485.56 2022.75C1482.14 2019.31 1476.7 2018.95 1472.84 2021.89 1462.07 2030.19 1450.54 2040.05 1438.81 2051.11L1292.46 1897.58C1289.75 1895 1285.49 1895 1282.78 1897.58L1263.42 1916.94C1260.84 1919.65 1260.84 1923.91 1263.42 1926.62L1416.68 2073.27C1406.08 2084.45 1396.07 2096.18 1386.68 2108.4 1383.76 2112.25 1384.13 2117.67 1387.56 2121.08 1393.99 2127.51 1404.61 2138.14 1414.06 2147.59L1369.14 2136.74 1347.46 2148.63 1310.67 2158.68 1348.87 2160.06 1373.97 2147.6 1423.3 2156.83 1426.67 2160.2 1430.22 2166.43 1402.65 2166.64 1380.73 2192.37 1403.84 2178.22 1427.91 2178 1432.71 2194.22 1436.28 2177.11 1447.01 2157.24C1450.28 2154.63 1453.61 2151.9 1456.98 2149.03L1472.05 2149.03 1476.31 2158.85 1469.66 2168.45 1474.94 2178.42 1482.5 2165.82 1487.39 2153.44 1509.68 2148.16 1528.17 2158.96 1514.7 2141.43Z" fill="#843C0C"/></g></g></g><g clip-path="url(#clip4)"><g clip-path="url(#clip5)"><g clip-path="url(#clip6)"><path d="M1642.49 2456.2 1655.1 2460.56 1659.28 2462.28C1653.19 2467.8 1647.03 2473.66 1640.86 2479.83 1626.61 2493.98 1613.27 2509.02 1600.93 2524.86 1597.98 2528.72 1598.35 2534.16 1601.79 2537.58L1642.44 2578.25C1645.86 2581.69 1651.3 2582.05 1655.16 2579.11 1665.93 2570.81 1677.46 2560.95 1689.19 2549.89L1835.54 2703.42C1838.25 2706 1842.51 2706 1845.22 2703.42L1864.58 2684.06C1867.16 2681.35 1867.16 2677.09 1864.58 2674.38L1711.32 2527.73C1721.92 2516.55 1731.93 2504.82 1741.32 2492.6 1744.24 2488.75 1743.87 2483.33 1740.44 2479.92 1734.01 2473.49 1723.39 2462.86 1713.94 2453.41L1758.86 2464.26 1780.54 2452.37 1817.33 2442.32 1779.13 2440.94 1754.03 2453.4 1704.7 2444.17 1701.33 2440.8 1697.78 2434.57 1725.35 2434.36 1747.27 2408.63 1724.16 2422.78 1700.09 2423 1695.29 2406.78 1691.72 2423.89 1680.99 2443.76C1677.72 2446.37 1674.39 2449.1 1671.02 2451.97L1655.94 2451.97 1651.69 2442.15 1658.34 2432.55 1653.06 2422.58 1645.5 2435.18 1640.61 2447.56 1618.32 2452.84 1599.83 2442.04 1613.3 2459.57Z" fill="#843C0C"/></g></g></g><g clip-path="url(#clip7)"><g clip-path="url(#clip8)"><g clip-path="url(#clip9)"><path d="M1988.51 2204.8 1975.9 2200.44 1971.72 2198.72C1977.8 2193.2 1983.97 2187.34 1990.14 2181.17 2004.39 2167.02 2017.73 2151.98 2030.07 2136.14 2033.02 2132.28 2032.65 2126.84 2029.21 2123.42L1988.56 2082.75C1985.14 2079.31 1979.7 2078.95 1975.84 2081.89 1965.07 2090.19 1953.54 2100.05 1941.81 2111.11L1795.46 1957.58C1792.75 1955 1788.49 1955 1785.78 1957.58L1766.42 1976.94C1763.84 1979.65 1763.84 1983.91 1766.42 1986.62L1919.68 2133.27C1909.08 2144.45 1899.07 2156.18 1889.68 2168.41 1886.76 2172.25 1887.13 2177.67 1890.56 2181.08 1896.99 2187.51 1907.61 2198.14 1917.06 2207.59L1872.14 2196.74 1850.46 2208.63 1813.67 2218.68 1851.87 2220.06 1876.97 2207.6 1926.3 2216.83 1929.67 2220.2 1933.22 2226.43 1905.65 2226.64 1883.73 2252.37 1906.84 2238.22 1930.91 2238 1935.71 2254.22 1939.28 2237.11 1950.01 2217.24C1953.28 2214.63 1956.61 2211.9 1959.98 2209.03L1975.05 2209.03 1979.31 2218.85 1972.66 2228.45 1977.94 2238.42 1985.5 2225.82 1990.39 2213.44 2012.68 2208.16 2031.17 2218.96 2017.7 2201.43Z" fill="#843C0C"/></g></g></g></g></svg>