  <?xml version="1.0" encoding="UTF-8" standalone="no"?>
    <svg width="16" height="16" viewBox="0 0 175 270" fill="none" version="1.1" id="svg29"
        sodipodi:docname="wordmark_2.svg" inkscape:version="1.2.2 (b0a8486541, 2022-12-01)"
        xmlns:inkscape="http://www.inkscape.org/namespaces/inkscape"
        xmlns:sodipodi="http://sodipodi.sourceforge.net/DTD/sodipodi-0.dtd" xmlns="http://www.w3.org/2000/svg"
        xmlns:svg="http://www.w3.org/2000/svg">
        <sodipodi:namedview id="namedview31" pagecolor="#ffffff" bordercolor="#000000" borderopacity="0.25"
            inkscape:showpageshadow="2" inkscape:pageopacity="0.0" inkscape:pagecheckerboard="0"
            inkscape:deskcolor="#d1d1d1" showgrid="false" inkscape:zoom="3.8037037" inkscape:cx="54.683544"
            inkscape:cy="135.5258" inkscape:window-width="3840" inkscape:window-height="2071" inkscape:window-x="-9"
            inkscape:window-y="-9" inkscape:window-maximized="1" inkscape:current-layer="svg29" />
        <g clip-path="url(#clip0)" id="g22" transform="matrix(1.5551344,0,0,1.5456867,-48.64967,0.03727731)">
            <path
                d="M 4.18587,172.44 86.3959,88.1685 c 0.515,-0.5279 0.6137,-1.3441 0.1842,-1.9436 C 81.5792,79.2442 72.3564,78.0343 68.9375,73.3445 58.8101,59.4522 56.2405,51.5891 51.8887,52.0768 c -0.304,0.0341 -0.575,0.1977 -0.7886,0.4166 L 21.4015,82.9367 C 4.31645,100.45 1.86636,139.01 1.41703,171.298 c -0.0203,1.459 1.74987,2.186 2.76884,1.142 z"
                fill="#017cee" id="path2" />
            <path
                d="M 172.44,170.357 88.1685,88.1466 c -0.5279,-0.515 -1.3441,-0.6138 -1.9436,-0.1843 -6.9806,5.001 -8.1905,14.2237 -12.8804,17.6427 -13.8923,10.127 -21.7554,12.697 -21.2677,17.049 0.0341,0.304 0.1977,0.575 0.4167,0.788 l 30.4432,29.699 c 17.5133,17.085 56.0733,19.535 88.3613,19.984 1.459,0.021 2.186,-1.749 1.142,-2.768 z"
                fill="#00ad46" id="path4" />
            <path fill-rule="evenodd" clip-rule="evenodd"
                d="M 82.9363,153.141 C 73.3696,143.809 68.9312,125.346 87.2715,87.2725 57.4647,100.593 47.0194,118.103 52.1578,123.116 Z"
                fill="#04d659" id="path6" />
            <path
                d="M 170.355,2.10462 88.1451,86.376 c -0.515,0.5279 -0.6137,1.344 -0.1842,1.9435 5.0009,6.9807 14.2241,8.1906 17.6421,12.8805 10.128,13.892 12.698,21.755 17.049,21.268 0.304,-0.034 0.575,-0.198 0.789,-0.417 l 29.698,-30.4433 c 17.086,-17.5135 19.536,-56.0731 19.985,-88.36143 0.02,-1.45908 -1.75,-2.18617 -2.769,-1.14165 z"
                fill="#00c7d4" id="path8" />
            <path fill-rule="evenodd" clip-rule="evenodd"
                d="m 153.14,91.6077 c -9.333,9.5663 -27.796,14.0053 -65.8695,-4.3352 13.3205,29.8065 30.8305,40.2525 35.8435,35.1135 z"
                fill="#11e1ee" id="path10" />
            <path
                d="M 2.10315,4.18733 86.3745,86.3973 c 0.5279,0.515 1.344,0.6138 1.9436,0.1843 6.9806,-5.0009 8.1905,-14.2237 12.8799,-17.6426 13.893,-10.1274 21.756,-12.697 21.268,-17.0488 -0.034,-0.304 -0.198,-0.575 -0.416,-0.7886 L 91.6063,21.403 C 74.0928,4.31792 35.5331,1.86783 3.2448,1.4185 1.78572,1.39819 1.05863,3.16836 2.10315,4.18733 Z"
                fill="#e43921" id="path12" />
            <path fill-rule="evenodd" clip-rule="evenodd"
                d="M 91.6057,21.4025 C 101.172,30.7352 105.611,49.1977 87.2705,87.2714 117.077,73.9511 127.523,56.4408 122.384,51.4281 Z"
                fill="#ff7557" id="path14" />
            <path fill-rule="evenodd" clip-rule="evenodd"
                d="M 21.4025,82.9368 C 30.7352,73.3701 49.1977,68.9317 87.2714,87.272 73.951,57.4652 56.4408,47.0199 51.4281,52.1583 Z"
                fill="#0cb6ff" id="path16" />
            <circle cx="87.283798" cy="87.260597" r="3.67606" transform="rotate(-0.709386,87.2838,87.2606)" fill="#4a4848"
                id="circle18" />
        </g>
        <defs id="defs27">
            <clipPath id="clip0">
                <rect width="175" height="270" fill="white" id="rect24" />
            </clipPath>
        </defs>
    </svg>